<?xml version="1.0" encoding="UTF-8"?><svg id="Ebene_1" xmlns="http://www.w3.org/2000/svg" viewBox="0 0 451.82 451.85"><polygon points="451.82 350.07 426.33 375.49 400.9 350.07 426.33 324.58 451.82 350.07"/><polygon points="451.82 400.98 400.9 451.84 375.41 426.41 426.33 375.49 451.82 400.98"/><rect x="332.01" y="408.43" width="35.96" height="35.96" transform="translate(-199.01 372.39) rotate(-45)"/><path d="M25.43,76.42L0,101.85l25.43,25.49,25.49-25.49-25.49-25.43ZM50.91.02L0,50.93l25.43,25.49,50.92-50.92L50.91.02ZM101.77.02l-25.43,25.49,25.43,25.43,25.49-25.43L101.77.02Z"/><path d="M133.6,165.48l.08.04,31.76-31.85-31.85,31.8ZM349.99,0l-25.43,25.51,25.43,25.43,25.43-25.43L349.99,0ZM400.88,0l-25.47,25.51,50.9,50.9,25.51-25.47L400.88,0ZM426.31,76.41l-25.43,25.43,25.43,25.51,25.51-25.51-25.51-25.43Z"/><polygon points="50.91 350.07 25.43 375.49 0 350.07 25.43 324.58 50.91 350.07"/><polygon points="76.34 426.41 50.91 451.84 0 400.98 25.43 375.49 76.34 426.41"/><polygon points="127.26 426.41 101.83 451.84 76.34 426.41 101.77 400.98 127.26 426.41"/><path d="M133.6,165.48l.08.04,31.76-31.85-31.85,31.8ZM349.99,0l-25.43,25.51,25.43,25.43,25.43-25.43L349.99,0ZM400.88,0l-25.47,25.51,50.9,50.9,25.51-25.47L400.88,0ZM426.31,76.41l-25.43,25.43,25.43,25.51,25.51-25.51-25.51-25.43Z"/><path d="M451.82,152.77l-25.51-25.43-73.15,73.16-101.83-101.83,73.24-73.16L299.09,0l-73.2,73.24L152.7,0l-25.43,25.51,73.16,73.16-34.97,35.01-31.76,31.85-35.06,35.01L25.43,127.34,0,152.77l73.2,73.2L0,299.16l25.43,25.43,73.2-73.2,66.82,66.82,34.97,35.01-73.16,73.2,25.43,25.43,73.2-73.2,73.2,73.2,25.47-25.43-73.24-73.2,66.82-66.78,35.02-35.06,73.15,73.2,25.51-25.43-73.15-73.2,73.15-73.2ZM225.89,321.38l-95.46-95.46,95.46-95.41,95.5,95.41-95.5,95.46Z"/></svg>